{
  "accessors": [
    {
      "bufferView": 2,
      "componentType": 5126,
      "count": 13264,
      "max": [
        0.1038232296705246,
        0.06337200105190277,
        0.1623460352420807
      ],
      "min": [
        -0.06337200105190277,
        -0.06337200105190277,
        0.0
      ],
      "type": "VEC3"
    },
    {
      "bufferView": 2,
      "byteOffset": 159168,
      "componentType": 5126,
      "count": 13264,
      "max": [
        1.0,
        1.0,
        0.9999992251396179
      ],
      "min": [
        -1.0,
        -1.0,
        -1.0
      ],
      "type": "VEC3"
    },
    {
      "bufferView": 3,
      "componentType": 5126,
      "count": 13264,
      "max": [
        1.0,
        1.0,
        0.9999520778656006,
        1.0
      ],
      "min": [
        -1.0,
        -1.0,
        -0.9913268089294434,
        -1.0
      ],
      "type": "VEC4"
    },
    {
      "bufferView": 1,
      "componentType": 5126,
      "count": 13264,
      "max": [
        1.0,
        0.9787594079971313
      ],
      "min": [
        0.0,
        0.0
      ],
      "type": "VEC2"
    },
    {
      "bufferView": 1,
      "byteOffset": 106112,
      "componentType": 5126,
      "count": 13264,
      "max": [
        1.0,
        0.9787594079971313
      ],
      "min": [
        0.0,
        0.0
      ],
      "type": "VEC2"
    },
    {
      "bufferView": 0,
      "componentType": 5125,
      "count": 66774,
      "type": "SCALAR"
    }
  ],
  "asset": {
    "extras": {
      "author": "Tejay21 (https://sketchfab.com/tejay21)",
      "license": "CC-BY-4.0 (http://creativecommons.org/licenses/by/4.0/)",
      "source": "https://sketchfab.com/3d-models/chinese-vintage-iron-cup-1a722222f69d49f59759293a107822bd",
      "title": "Chinese Vintage Iron Cup"
    },
    "generator": "Sketchfab-13.74.0",
    "version": "2.0"
  },
  "bufferViews": [
    {
      "buffer": 0,
      "byteLength": 267096,
      "name": "floatBufferViews",
      "target": 34963
    },
    {
      "buffer": 0,
      "byteLength": 212224,
      "byteOffset": 267096,
      "byteStride": 8,
      "name": "floatBufferViews",
      "target": 34962
    },
    {
      "buffer": 0,
      "byteLength": 318336,
      "byteOffset": 479320,
      "byteStride": 12,
      "name": "floatBufferViews",
      "target": 34962
    },
    {
      "buffer": 0,
      "byteLength": 212224,
      "byteOffset": 797656,
      "byteStride": 16,
      "name": "floatBufferViews",
      "target": 34962
    }
  ],
  "buffers": [
    {
      "byteLength": 1009880,
      "uri": "scene.bin"
    }
  ],
  "images": [
    {
      "uri": "textures/VintageIronCup_Baked_baseColor.png"
    },
    {
      "uri": "textures/VintageIronCup_Baked_metallicRoughness.png"
    },
    {
      "uri": "textures/VintageIronCup_Baked_normal.png"
    }
  ],
  "materials": [
    {
      "doubleSided": true,
      "name": "VintageIronCup_Baked",
      "normalTexture": {
        "index": 2
      },
      "occlusionTexture": {
        "index": 1
      },
      "pbrMetallicRoughness": {
        "baseColorTexture": {
          "index": 0
        },
        "metallicRoughnessTexture": {
          "index": 1
        }
      }
    }
  ],
  "meshes": [
    {
      "name": "VintageIronCup_Baked_VintageIronCup_Baked_0",
      "primitives": [
        {
          "attributes": {
            "NORMAL": 1,
            "POSITION": 0,
            "TANGENT": 2,
            "TEXCOORD_0": 3,
            "TEXCOORD_1": 4
          },
          "indices": 5,
          "material": 0,
          "mode": 4
        }
      ]
    }
  ],
  "nodes": [
    {
      "children": [
        1
      ],
      "matrix": [
        1.0,
        0.0,
        0.0,
        0.0,
        0.0,
        2.220446049250313e-16,
        -1.0,
        0.0,
        0.0,
        1.0,
        2.220446049250313e-16,
        0.0,
        0.0,
        0.0,
        0.0,
        1.0
      ],
      "name": "Sketchfab_model"
    },
    {
      "children": [
        2
      ],
      "matrix": [
        0.009999999776482582,
        0.0,
        0.0,
        0.0,
        0.0,
        0.0,
        0.009999999776482582,
        0.0,
        0.0,
        -0.009999999776482582,
        0.0,
        0.0,
        0.0,
        0.0,
        0.0,
        1.0
      ],
      "name": "VintageSteelCup.fbx"
    },
    {
      "children": [
        3
      ],
      "name": "RootNode"
    },
    {
      "children": [
        4
      ],
      "matrix": [
        100.0,
        0.0,
        0.0,
        0.0,
        0.0,
        -1.629206793918314e-05,
        -99.99999999999868,
        0.0,
        0.0,
        99.99999999999868,
        -1.629206793918314e-05,
        0.0,
        1.0477378964424133e-07,
        0.0835523009300232,
        1.784064806997776e-05,
        1.0
      ],
      "name": "VintageIronCup_Baked"
    },
    {
      "mesh": 0,
      "name": "VintageIronCup_Baked_VintageIronCup_Baked_0"
    }
  ],
  "samplers": [
    {
      "magFilter": 9729,
      "minFilter": 9987,
      "wrapS": 10497,
      "wrapT": 10497
    }
  ],
  "scene": 0,
  "scenes": [
    {
      "name": "Sketchfab_Scene",
      "nodes": [
        0
      ]
    }
  ],
  "textures": [
    {
      "sampler": 0,
      "source": 0
    },
    {
      "sampler": 0,
      "source": 1
    },
    {
      "sampler": 0,
      "source": 2
    }
  ]
}
