{
  "accessors": [
    {
      "bufferView": 2,
      "componentType": 5126,
      "count": 1374,
      "max": [
        34.78886413574219,
        -155.86398315429688,
        -302.69561767578125
      ],
      "min": [
        -35.01304244995117,
        -158.29762268066406,
        -376.4148864746094
      ],
      "type": "VEC3"
    },
    {
      "bufferView": 2,
      "byteOffset": 16488,
      "componentType": 5126,
      "count": 1374,
      "max": [
        0.9999820590019226,
        0.999840259552002,
        0.9994974732398987
      ],
      "min": [
        -0.9999821186065674,
        -0.9998199343681335,
        -0.9995263814926147
      ],
      "type": "VEC3"
    },
    {
      "bufferView": 1,
      "componentType": 5126,
      "count": 1374,
      "max": [
        0.5952453017234802,
        0.991600513458252
      ],
      "min": [
        0.002393977716565132,
        0.4038569927215576
      ],
      "type": "VEC2"
    },
    {
      "bufferView": 0,
      "componentType": 5125,
      "count": 7776,
      "type": "SCALAR"
    },
    {
      "bufferView": 2,
      "byteOffset": 32976,
      "componentType": 5126,
      "count": 4368,
      "max": [
        33.97946548461914,
        -155.9423065185547,
        -307.4751892089844
      ],
      "min": [
        -34.213706970214844,
        -209.76988220214844,
        -375.6372985839844
      ],
      "type": "VEC3"
    },
    {
      "bufferView": 2,
      "byteOffset": 85392,
      "componentType": 5126,
      "count": 4368,
      "max": [
        0.9999827742576599,
        0.9999958872795105,
        0.9995270371437073
      ],
      "min": [
        -0.9999995827674866,
        -0.9999316334724426,
        -0.9999690055847168
      ],
      "type": "VEC3"
    },
    {
      "bufferView": 1,
      "byteOffset": 10992,
      "componentType": 5126,
      "count": 4368,
      "max": [
        0.9936039447784424,
        0.5483137369155884
      ],
      "min": [
        0.45316335558891296,
        0.006853550672531128
      ],
      "type": "VEC2"
    },
    {
      "bufferView": 0,
      "byteOffset": 31104,
      "componentType": 5125,
      "count": 25344,
      "type": "SCALAR"
    }
  ],
  "asset": {
    "extras": {
      "author": "GalaxyL (https://sketchfab.com/GalaxyL)",
      "license": "CC-BY-4.0 (http://creativecommons.org/licenses/by/4.0/)",
      "source": "https://sketchfab.com/3d-models/2281e7473c1745d88961ccb023c3e7d3",
      "title": "泡面模型"
    },
    "generator": "Sketchfab-16.72.0",
    "version": "2.0"
  },
  "bufferViews": [
    {
      "buffer": 0,
      "byteLength": 132480,
      "name": "floatBufferViews",
      "target": 34963
    },
    {
      "buffer": 0,
      "byteLength": 45936,
      "byteOffset": 132480,
      "byteStride": 8,
      "name": "floatBufferViews",
      "target": 34962
    },
    {
      "buffer": 0,
      "byteLength": 137808,
      "byteOffset": 178416,
      "byteStride": 12,
      "name": "floatBufferViews",
      "target": 34962
    }
  ],
  "buffers": [
    {
      "byteLength": 316224,
      "uri": "scene.bin"
    }
  ],
  "images": [
    {
      "uri": "textures/lambert5_baseColor.jpeg"
    }
  ],
  "materials": [
    {
      "doubleSided": true,
      "name": "lambert5",
      "pbrMetallicRoughness": {
        "baseColorTexture": {
          "index": 0
        },
        "metallicFactor": 0.0,
        "roughnessFactor": 0.6
      }
    },
    {
      "doubleSided": true,
      "name": "lambert1",
      "pbrMetallicRoughness": {
        "baseColorTexture": {
          "index": 0
        },
        "metallicFactor": 0.0,
        "roughnessFactor": 0.6
      }
    }
  ],
  "meshes": [
    {
      "name": "polySurface1_lambert5_0",
      "primitives": [
        {
          "attributes": {
            "NORMAL": 1,
            "POSITION": 0,
            "TEXCOORD_0": 2
          },
          "indices": 3,
          "material": 0,
          "mode": 4
        }
      ]
    },
    {
      "name": "polySurface1_lambert1_0",
      "primitives": [
        {
          "attributes": {
            "NORMAL": 5,
            "POSITION": 4,
            "TEXCOORD_0": 6
          },
          "indices": 7,
          "material": 1,
          "mode": 4
        }
      ]
    }
  ],
  "nodes": [
    {
      "children": [
        1
      ],
      "matrix": [
        1.0,
        0.0,
        0.0,
        0.0,
        0.0,
        2.220446049250313e-16,
        -1.0,
        0.0,
        0.0,
        1.0,
        2.220446049250313e-16,
        0.0,
        0.0,
        0.0,
        0.0,
        1.0
      ],
      "name": "Sketchfab_model"
    },
    {
      "children": [
        2
      ],
      "matrix": [
        0.009999999776482582,
        0.0,
        0.0,
        0.0,
        0.0,
        0.0,
        0.009999999776482582,
        0.0,
        0.0,
        -0.009999999776482582,
        0.0,
        0.0,
        0.0,
        0.0,
        0.0,
        1.0
      ],
      "name": "ffd70fb8042d4de780c72fb2e6039a1c.fbx"
    },
    {
      "children": [
        3
      ],
      "name": "RootNode"
    },
    {
      "children": [
        4,
        5
      ],
      "name": "polySurface1"
    },
    {
      "mesh": 0,
      "name": "polySurface1_lambert5_0"
    },
    {
      "mesh": 1,
      "name": "polySurface1_lambert1_0"
    }
  ],
  "samplers": [
    {
      "magFilter": 9729,
      "minFilter": 9987,
      "wrapS": 10497,
      "wrapT": 10497
    }
  ],
  "scene": 0,
  "scenes": [
    {
      "name": "Sketchfab_Scene",
      "nodes": [
        0
      ]
    }
  ],
  "textures": [
    {
      "sampler": 0,
      "source": 0
    }
  ]
}
