{
  "accessors": [
    {
      "bufferView": 2,
      "componentType": 5126,
      "count": 4,
      "max": [
        0.03208199888467789,
        -0.007949000224471092,
        -0.05008700117468834
      ],
      "min": [
        -0.0013780000153928995,
        -0.022278999909758568,
        -0.051917001605033875
      ],
      "type": "VEC3"
    },
    {
      "bufferView": 1,
      "componentType": 5126,
      "count": 4,
      "max": [
        0.0,
        0.0
      ],
      "min": [
        0.0,
        0.0
      ],
      "type": "VEC2"
    },
    {
      "bufferView": 0,
      "componentType": 5125,
      "count": 4,
      "type": "SCALAR"
    },
    {
      "bufferView": 2,
      "byteOffset": 48,
      "componentType": 5126,
      "count": 65532,
      "max": [
        0.09745199978351593,
        0.13418099284172058,
        0.08417300134897232
      ],
      "min": [
        -0.08790799975395203,
        -0.0934389978647232,
        -0.06635700166225433
      ],
      "type": "VEC3"
    },
    {
      "bufferView": 2,
      "byteOffset": 786432,
      "componentType": 5126,
      "count": 65532,
      "max": [
        1.0,
        0.9991605877876282,
        1.0
      ],
      "min": [
        -0.999678909778595,
        -0.998688817024231,
        -0.9998322129249573
      ],
      "type": "VEC3"
    },
    {
      "bufferView": 1,
      "byteOffset": 32,
      "componentType": 5126,
      "count": 65532,
      "max": [
        0.9972959756851196,
        0.953033983707428
      ],
      "min": [
        0.057666998356580734,
        0.33533498644828796
      ],
      "type": "VEC2"
    },
    {
      "bufferView": 0,
      "byteOffset": 16,
      "componentType": 5125,
      "count": 65952,
      "type": "SCALAR"
    },
    {
      "bufferView": 2,
      "byteOffset": 1572816,
      "componentType": 5126,
      "count": 65534,
      "max": [
        0.10123199969530106,
        0.11272100359201431,
        0.08465299755334854
      ],
      "min": [
        -0.08521799743175507,
        -0.07419899851083755,
        -0.0643170028924942
      ],
      "type": "VEC3"
    },
    {
      "bufferView": 2,
      "byteOffset": 2359224,
      "componentType": 5126,
      "count": 65534,
      "max": [
        0.999915599822998,
        0.996997594833374,
        1.0
      ],
      "min": [
        -0.9983460903167725,
        -0.9998651742935181,
        -0.9991381168365479
      ],
      "type": "VEC3"
    },
    {
      "bufferView": 1,
      "byteOffset": 524288,
      "componentType": 5126,
      "count": 65534,
      "max": [
        0.9763190150260925,
        0.9901999831199646
      ],
      "min": [
        0.002096999902278185,
        0.43403199315071106
      ],
      "type": "VEC2"
    },
    {
      "bufferView": 0,
      "byteOffset": 263824,
      "componentType": 5125,
      "count": 65556,
      "type": "SCALAR"
    },
    {
      "bufferView": 2,
      "byteOffset": 3145632,
      "componentType": 5126,
      "count": 65533,
      "max": [
        0.09918200224637985,
        0.11265099793672562,
        0.08409299701452255
      ],
      "min": [
        -0.09052799642086029,
        -0.0722690001130104,
        -0.06434699892997742
      ],
      "type": "VEC3"
    },
    {
      "bufferView": 2,
      "byteOffset": 3932028,
      "componentType": 5126,
      "count": 65533,
      "max": [
        0.8683004379272461,
        0.9999788999557495,
        0.9999803304672241
      ],
      "min": [
        -0.9999839067459106,
        -0.9994460344314575,
        -0.9986744523048401
      ],
      "type": "VEC3"
    },
    {
      "bufferView": 1,
      "byteOffset": 1048560,
      "componentType": 5126,
      "count": 65533,
      "max": [
        0.907194972038269,
        0.9979130029678345
      ],
      "min": [
        0.002093000104650855,
        0.7139139771461487
      ],
      "type": "VEC2"
    },
    {
      "bufferView": 0,
      "byteOffset": 526048,
      "componentType": 5125,
      "count": 65577,
      "type": "SCALAR"
    },
    {
      "bufferView": 2,
      "byteOffset": 4718424,
      "componentType": 5126,
      "count": 65532,
      "max": [
        0.09577199816703796,
        0.13402099907398224,
        0.08371300250291824
      ],
      "min": [
        -0.09036800265312195,
        -0.09387899935245514,
        -0.06622699648141861
      ],
      "type": "VEC3"
    },
    {
      "bufferView": 2,
      "byteOffset": 5504808,
      "componentType": 5126,
      "count": 65532,
      "max": [
        0.9998950958251953,
        0.9999496936798096,
        0.9998923540115356
      ],
      "min": [
        -0.9999436140060425,
        -0.9999758005142212,
        -0.9995407462120056
      ],
      "type": "VEC3"
    },
    {
      "bufferView": 1,
      "byteOffset": 1572824,
      "componentType": 5126,
      "count": 65532,
      "max": [
        0.9938700199127197,
        0.9978520274162292
      ],
      "min": [
        0.1219400018453598,
        0.5195440053939819
      ],
      "type": "VEC2"
    },
    {
      "bufferView": 0,
      "byteOffset": 788356,
      "componentType": 5125,
      "count": 65556,
      "type": "SCALAR"
    },
    {
      "bufferView": 2,
      "byteOffset": 6291192,
      "componentType": 5126,
      "count": 15653,
      "max": [
        0.10110200196504593,
        0.09746100008487701,
        0.08188299834728241
      ],
      "min": [
        -0.08761800080537796,
        -0.05810900032520294,
        -0.05319700017571449
      ],
      "type": "VEC3"
    },
    {
      "bufferView": 2,
      "byteOffset": 6479028,
      "componentType": 5126,
      "count": 15653,
      "max": [
        0.999923586845398,
        0.7732876539230347,
        0.8845176100730896
      ],
      "min": [
        -0.4489211440086365,
        -0.9142907857894897,
        -0.9997186064720154
      ],
      "type": "VEC3"
    },
    {
      "bufferView": 1,
      "byteOffset": 2097080,
      "componentType": 5126,
      "count": 15653,
      "max": [
        0.8629599809646606,
        0.6800169944763184
      ],
      "min": [
        0.6152499914169312,
        0.5237900018692017
      ],
      "type": "VEC2"
    },
    {
      "bufferView": 0,
      "byteOffset": 1050580,
      "componentType": 5125,
      "count": 15657,
      "type": "SCALAR"
    }
  ],
  "asset": {
    "extras": {
      "author": "Museum Batavialand (https://sketchfab.com/Batavialand)",
      "license": "CC-BY-4.0 (http://creativecommons.org/licenses/by/4.0/)",
      "source": "https://sketchfab.com/3d-models/iron-cooking-pot-ijzeren-kookpot-so1-1509-228ad23724b04e92b141a8f569e366aa",
      "title": "Iron cooking pot (ijzeren kookpot) SO1-1509"
    },
    "generator": "Sketchfab-16.72.0",
    "version": "2.0"
  },
  "bufferViews": [
    {
      "buffer": 0,
      "byteLength": 1113208,
      "name": "floatBufferViews",
      "target": 34963
    },
    {
      "buffer": 0,
      "byteLength": 2222304,
      "byteOffset": 1113208,
      "byteStride": 8,
      "name": "floatBufferViews",
      "target": 34962
    },
    {
      "buffer": 0,
      "byteLength": 6666864,
      "byteOffset": 3335512,
      "byteStride": 12,
      "name": "floatBufferViews",
      "target": 34962
    }
  ],
  "buffers": [
    {
      "byteLength": 10002376,
      "uri": "scene.bin"
    }
  ],
  "images": [
    {
      "uri": "textures/main.001_baseColor.jpeg"
    }
  ],
  "materials": [
    {
      "doubleSided": true,
      "name": "main.001",
      "pbrMetallicRoughness": {
        "baseColorTexture": {
          "index": 0
        },
        "metallicFactor": 0.0
      }
    }
  ],
  "meshes": [
    {
      "name": "Object_0",
      "primitives": [
        {
          "attributes": {
            "POSITION": 0,
            "TEXCOORD_0": 1
          },
          "indices": 2,
          "material": 0,
          "mode": 1
        }
      ]
    },
    {
      "name": "Object_1",
      "primitives": [
        {
          "attributes": {
            "NORMAL": 4,
            "POSITION": 3,
            "TEXCOORD_0": 5
          },
          "indices": 6,
          "material": 0,
          "mode": 4
        }
      ]
    },
    {
      "name": "Object_2",
      "primitives": [
        {
          "attributes": {
            "NORMAL": 8,
            "POSITION": 7,
            "TEXCOORD_0": 9
          },
          "indices": 10,
          "material": 0,
          "mode": 4
        }
      ]
    },
    {
      "name": "Object_3",
      "primitives": [
        {
          "attributes": {
            "NORMAL": 12,
            "POSITION": 11,
            "TEXCOORD_0": 13
          },
          "indices": 14,
          "material": 0,
          "mode": 4
        }
      ]
    },
    {
      "name": "Object_4",
      "primitives": [
        {
          "attributes": {
            "NORMAL": 16,
            "POSITION": 15,
            "TEXCOORD_0": 17
          },
          "indices": 18,
          "material": 0,
          "mode": 4
        }
      ]
    },
    {
      "name": "Object_5",
      "primitives": [
        {
          "attributes": {
            "NORMAL": 20,
            "POSITION": 19,
            "TEXCOORD_0": 21
          },
          "indices": 22,
          "material": 0,
          "mode": 4
        }
      ]
    }
  ],
  "nodes": [
    {
      "children": [
        1
      ],
      "matrix": [
        1.0,
        0.0,
        0.0,
        0.0,
        0.0,
        2.220446049250313e-16,
        -1.0,
        0.0,
        0.0,
        1.0,
        2.220446049250313e-16,
        0.0,
        0.0,
        0.0,
        0.0,
        1.0
      ],
      "name": "Sketchfab_model"
    },
    {
      "children": [
        2,
        3,
        4,
        5,
        6,
        7
      ],
      "name": "kookpot.obj.cleaner.materialmerger.gles"
    },
    {
      "mesh": 0,
      "name": "Object_2"
    },
    {
      "mesh": 1,
      "name": "Object_3"
    },
    {
      "mesh": 2,
      "name": "Object_4"
    },
    {
      "mesh": 3,
      "name": "Object_5"
    },
    {
      "mesh": 4,
      "name": "Object_6"
    },
    {
      "mesh": 5,
      "name": "Object_7"
    }
  ],
  "samplers": [
    {
      "magFilter": 9729,
      "minFilter": 9987,
      "wrapS": 10497,
      "wrapT": 10497
    }
  ],
  "scene": 0,
  "scenes": [
    {
      "name": "Sketchfab_Scene",
      "nodes": [
        0
      ]
    }
  ],
  "textures": [
    {
      "sampler": 0,
      "source": 0
    }
  ]
}
